<svg width="65" height="64" viewBox="0 0 65 64" fill="none" xmlns="http://www.w3.org/2000/svg">
<path d="M34.6667 55.2326V24.687H30.3334V55.2326L23.3077 48.2069L20.2435 51.271L32.5 63.5277L44.7566 51.271L41.6924 48.2069L34.6667 55.2326Z" fill="#03A6A6"/>
<path d="M52 19.5C52 8.74792 43.2521 0 32.5 0C21.7479 0 13 8.74792 13 19.5C9.55219 19.5 6.24558 20.8696 3.80761 23.3076C1.36964 25.7456 0 29.0522 0 32.5C0 35.9478 1.36964 39.2544 3.80761 41.6924C6.24558 44.1304 9.55219 45.5 13 45.5H23.8333V41.1667H13C10.7015 41.1667 8.49706 40.2536 6.87174 38.6283C5.24643 37.0029 4.33333 34.7985 4.33333 32.5C4.33333 30.2015 5.24643 27.9971 6.87174 26.3717C8.49706 24.7464 10.7015 23.8333 13 23.8333H17.3333V19.5C17.3333 15.4776 18.9312 11.6198 21.7755 8.77555C24.6199 5.93125 28.4776 4.33333 32.5 4.33333C36.5224 4.33333 40.3802 5.93125 43.2245 8.77555C46.0688 11.6198 47.6667 15.4776 47.6667 19.5V23.8333H52C54.2985 23.8333 56.5029 24.7464 58.1283 26.3717C59.7536 27.9971 60.6667 30.2015 60.6667 32.5C60.6667 34.7985 59.7536 37.0029 58.1283 38.6283C56.5029 40.2536 54.2985 41.1667 52 41.1667H41.1667V45.5H52C55.4478 45.5 58.7544 44.1304 61.1924 41.6924C63.6304 39.2544 65 35.9478 65 32.5C65 29.0522 63.6304 25.7456 61.1924 23.3076C58.7544 20.8696 55.4478 19.5 52 19.5Z" fill="#03A6A6"/>
</svg>
