<svg width="1427" height="208" viewBox="0 0 1427 208" fill="none" xmlns="http://www.w3.org/2000/svg">
<mask id="path-1-outside-1_4_349" maskUnits="userSpaceOnUse" x="0" y="0" width="1427" height="208" fill="black">
<rect fill="white" width="1427" height="208"/>
<path d="M126.39 13.26V50.25H49.17V90.21H106.95V126.12H49.17V202.8H3V13.26H126.39Z"/>
<path d="M299.426 52.14V202.8H253.256V182.28C248.576 188.94 242.186 194.34 234.086 198.48C226.166 202.44 217.346 204.42 207.626 204.42C196.106 204.42 185.936 201.9 177.116 196.86C168.296 191.64 161.456 184.17 156.596 174.45C151.736 164.73 149.306 153.3 149.306 140.16V52.14H195.206V133.95C195.206 144.03 197.816 151.86 203.036 157.44C208.256 163.02 215.276 165.81 224.096 165.81C233.096 165.81 240.206 163.02 245.426 157.44C250.646 151.86 253.256 144.03 253.256 133.95V52.14H299.426Z"/>
<path d="M378.76 3V202.8H332.59V3H378.76Z"/>
<path d="M458.389 3V202.8H412.219V3H458.389Z"/>
<path d="M607.948 88.86V127.2H489.148V88.86H607.948Z"/>
<path d="M717.049 204.69C703.189 204.69 690.769 202.44 679.789 197.94C668.809 193.44 659.989 186.78 653.329 177.96C646.849 169.14 643.429 158.52 643.069 146.1H692.209C692.929 153.12 695.359 158.52 699.499 162.3C703.639 165.9 709.039 167.7 715.699 167.7C722.539 167.7 727.939 166.17 731.899 163.11C735.859 159.87 737.839 155.46 737.839 149.88C737.839 145.2 736.219 141.33 732.979 138.27C729.919 135.21 726.049 132.69 721.369 130.71C716.869 128.73 710.389 126.48 701.929 123.96C689.689 120.18 679.699 116.4 671.959 112.62C664.219 108.84 657.559 103.26 651.979 95.88C646.399 88.5 643.609 78.87 643.609 66.99C643.609 49.35 649.999 35.58 662.779 25.68C675.559 15.6 692.209 10.56 712.729 10.56C733.609 10.56 750.439 15.6 763.219 25.68C775.999 35.58 782.839 49.44 783.739 67.26H733.789C733.429 61.14 731.179 56.37 727.039 52.95C722.899 49.35 717.589 47.55 711.109 47.55C705.529 47.55 701.029 49.08 697.609 52.14C694.189 55.02 692.479 59.25 692.479 64.83C692.479 70.95 695.359 75.72 701.119 79.14C706.879 82.56 715.879 86.25 728.119 90.21C740.359 94.35 750.259 98.31 757.819 102.09C765.559 105.87 772.219 111.36 777.799 118.56C783.379 125.76 786.169 135.03 786.169 146.37C786.169 157.17 783.379 166.98 777.799 175.8C772.399 184.62 764.479 191.64 754.039 196.86C743.599 202.08 731.269 204.69 717.049 204.69Z"/>
<path d="M898.552 163.65V202.8H875.062C858.322 202.8 845.272 198.75 835.912 190.65C826.552 182.37 821.872 168.96 821.872 150.42V90.48H803.512V52.14H821.872V15.42H868.042V52.14H898.282V90.48H868.042V150.96C868.042 155.46 869.122 158.7 871.282 160.68C873.442 162.66 877.042 163.65 882.082 163.65H898.552Z"/>
<path d="M915.09 127.2C915.09 111.72 917.97 98.13 923.73 86.43C929.67 74.73 937.68 65.73 947.76 59.43C957.84 53.13 969.09 49.98 981.51 49.98C992.13 49.98 1001.4 52.14 1009.32 56.46C1017.42 60.78 1023.63 66.45 1027.95 73.47V52.14H1074.12V202.8H1027.95V181.47C1023.45 188.49 1017.15 194.16 1009.05 198.48C1001.13 202.8 991.859 204.96 981.24 204.96C969 204.96 957.84 201.81 947.76 195.51C937.68 189.03 929.67 179.94 923.73 168.24C917.97 156.36 915.09 142.68 915.09 127.2ZM1027.95 127.47C1027.95 115.95 1024.71 106.86 1018.23 100.2C1011.93 93.54 1004.19 90.21 995.01 90.21C985.83 90.21 978 93.54 971.52 100.2C965.22 106.68 962.07 115.68 962.07 127.2C962.07 138.72 965.22 147.9 971.52 154.74C978 161.4 985.83 164.73 995.01 164.73C1004.19 164.73 1011.93 161.4 1018.23 154.74C1024.71 148.08 1027.95 138.99 1027.95 127.47Z"/>
<path d="M1098.34 127.47C1098.34 111.81 1101.49 98.13 1107.79 86.43C1114.27 74.73 1123.18 65.73 1134.52 59.43C1146.04 53.13 1159.18 49.98 1173.94 49.98C1192.84 49.98 1208.59 54.93 1221.19 64.83C1233.97 74.73 1242.34 88.68 1246.3 106.68H1197.16C1193.02 95.16 1185.01 89.4 1173.13 89.4C1164.67 89.4 1157.92 92.73 1152.88 99.39C1147.84 105.87 1145.32 115.23 1145.32 127.47C1145.32 139.71 1147.84 149.16 1152.88 155.82C1157.92 162.3 1164.67 165.54 1173.13 165.54C1185.01 165.54 1193.02 159.78 1197.16 148.26H1246.3C1242.34 165.9 1233.97 179.76 1221.19 189.84C1208.41 199.92 1192.66 204.96 1173.94 204.96C1159.18 204.96 1146.04 201.81 1134.52 195.51C1123.18 189.21 1114.27 180.21 1107.79 168.51C1101.49 156.81 1098.34 143.13 1098.34 127.47Z"/>
<path d="M1363.07 202.8L1317.17 139.62V202.8H1271V3H1317.17V113.43L1362.8 52.14H1419.77L1357.13 127.74L1420.31 202.8H1363.07Z"/>
</mask>
<path d="M126.39 13.26V50.25H49.17V90.21H106.95V126.12H49.17V202.8H3V13.26H126.39Z" stroke="#03A6A6" stroke-opacity="0.5" stroke-width="6" mask="url(#path-1-outside-1_4_349)"/>
<path d="M299.426 52.14V202.8H253.256V182.28C248.576 188.94 242.186 194.34 234.086 198.48C226.166 202.44 217.346 204.42 207.626 204.42C196.106 204.42 185.936 201.9 177.116 196.86C168.296 191.64 161.456 184.17 156.596 174.45C151.736 164.73 149.306 153.3 149.306 140.16V52.14H195.206V133.95C195.206 144.03 197.816 151.86 203.036 157.44C208.256 163.02 215.276 165.81 224.096 165.81C233.096 165.81 240.206 163.02 245.426 157.44C250.646 151.86 253.256 144.03 253.256 133.95V52.14H299.426Z" stroke="#03A6A6" stroke-opacity="0.5" stroke-width="6" mask="url(#path-1-outside-1_4_349)"/>
<path d="M378.76 3V202.8H332.59V3H378.76Z" stroke="#03A6A6" stroke-opacity="0.5" stroke-width="6" mask="url(#path-1-outside-1_4_349)"/>
<path d="M458.389 3V202.8H412.219V3H458.389Z" stroke="#03A6A6" stroke-opacity="0.5" stroke-width="6" mask="url(#path-1-outside-1_4_349)"/>
<path d="M607.948 88.86V127.2H489.148V88.86H607.948Z" stroke="#03A6A6" stroke-opacity="0.5" stroke-width="6" mask="url(#path-1-outside-1_4_349)"/>
<path d="M717.049 204.69C703.189 204.69 690.769 202.44 679.789 197.94C668.809 193.44 659.989 186.78 653.329 177.96C646.849 169.14 643.429 158.52 643.069 146.1H692.209C692.929 153.12 695.359 158.52 699.499 162.3C703.639 165.9 709.039 167.7 715.699 167.7C722.539 167.7 727.939 166.17 731.899 163.11C735.859 159.87 737.839 155.46 737.839 149.88C737.839 145.2 736.219 141.33 732.979 138.27C729.919 135.21 726.049 132.69 721.369 130.71C716.869 128.73 710.389 126.48 701.929 123.96C689.689 120.18 679.699 116.4 671.959 112.62C664.219 108.84 657.559 103.26 651.979 95.88C646.399 88.5 643.609 78.87 643.609 66.99C643.609 49.35 649.999 35.58 662.779 25.68C675.559 15.6 692.209 10.56 712.729 10.56C733.609 10.56 750.439 15.6 763.219 25.68C775.999 35.58 782.839 49.44 783.739 67.26H733.789C733.429 61.14 731.179 56.37 727.039 52.95C722.899 49.35 717.589 47.55 711.109 47.55C705.529 47.55 701.029 49.08 697.609 52.14C694.189 55.02 692.479 59.25 692.479 64.83C692.479 70.95 695.359 75.72 701.119 79.14C706.879 82.56 715.879 86.25 728.119 90.21C740.359 94.35 750.259 98.31 757.819 102.09C765.559 105.87 772.219 111.36 777.799 118.56C783.379 125.76 786.169 135.03 786.169 146.37C786.169 157.17 783.379 166.98 777.799 175.8C772.399 184.62 764.479 191.64 754.039 196.86C743.599 202.08 731.269 204.69 717.049 204.69Z" stroke="#03A6A6" stroke-opacity="0.5" stroke-width="6" mask="url(#path-1-outside-1_4_349)"/>
<path d="M898.552 163.65V202.8H875.062C858.322 202.8 845.272 198.75 835.912 190.65C826.552 182.37 821.872 168.96 821.872 150.42V90.48H803.512V52.14H821.872V15.42H868.042V52.14H898.282V90.48H868.042V150.96C868.042 155.46 869.122 158.7 871.282 160.68C873.442 162.66 877.042 163.65 882.082 163.65H898.552Z" stroke="#03A6A6" stroke-opacity="0.5" stroke-width="6" mask="url(#path-1-outside-1_4_349)"/>
<path d="M915.09 127.2C915.09 111.72 917.97 98.13 923.73 86.43C929.67 74.73 937.68 65.73 947.76 59.43C957.84 53.13 969.09 49.98 981.51 49.98C992.13 49.98 1001.4 52.14 1009.32 56.46C1017.42 60.78 1023.63 66.45 1027.95 73.47V52.14H1074.12V202.8H1027.95V181.47C1023.45 188.49 1017.15 194.16 1009.05 198.48C1001.13 202.8 991.859 204.96 981.24 204.96C969 204.96 957.84 201.81 947.76 195.51C937.68 189.03 929.67 179.94 923.73 168.24C917.97 156.36 915.09 142.68 915.09 127.2ZM1027.95 127.47C1027.95 115.95 1024.71 106.86 1018.23 100.2C1011.93 93.54 1004.19 90.21 995.01 90.21C985.83 90.21 978 93.54 971.52 100.2C965.22 106.68 962.07 115.68 962.07 127.2C962.07 138.72 965.22 147.9 971.52 154.74C978 161.4 985.83 164.73 995.01 164.73C1004.19 164.73 1011.93 161.4 1018.23 154.74C1024.71 148.08 1027.95 138.99 1027.95 127.47Z" stroke="#03A6A6" stroke-opacity="0.5" stroke-width="6" mask="url(#path-1-outside-1_4_349)"/>
<path d="M1098.34 127.47C1098.34 111.81 1101.49 98.13 1107.79 86.43C1114.27 74.73 1123.18 65.73 1134.52 59.43C1146.04 53.13 1159.18 49.98 1173.94 49.98C1192.84 49.98 1208.59 54.93 1221.19 64.83C1233.97 74.73 1242.34 88.68 1246.3 106.68H1197.16C1193.02 95.16 1185.01 89.4 1173.13 89.4C1164.67 89.4 1157.92 92.73 1152.88 99.39C1147.84 105.87 1145.32 115.23 1145.32 127.47C1145.32 139.71 1147.84 149.16 1152.88 155.82C1157.92 162.3 1164.67 165.54 1173.13 165.54C1185.01 165.54 1193.02 159.78 1197.16 148.26H1246.3C1242.34 165.9 1233.97 179.76 1221.19 189.84C1208.41 199.92 1192.66 204.96 1173.94 204.96C1159.18 204.96 1146.04 201.81 1134.52 195.51C1123.18 189.21 1114.27 180.21 1107.79 168.51C1101.49 156.81 1098.34 143.13 1098.34 127.47Z" stroke="#03A6A6" stroke-opacity="0.5" stroke-width="6" mask="url(#path-1-outside-1_4_349)"/>
<path d="M1363.07 202.8L1317.17 139.62V202.8H1271V3H1317.17V113.43L1362.8 52.14H1419.77L1357.13 127.74L1420.31 202.8H1363.07Z" stroke="#03A6A6" stroke-opacity="0.5" stroke-width="6" mask="url(#path-1-outside-1_4_349)"/>
</svg>
