<svg width="60" height="60" viewBox="0 0 60 60" fill="none" xmlns="http://www.w3.org/2000/svg">
<path d="M30.0019 0.739058C13.4277 0.739058 0 14.178 0 30.7409C0 44.0036 8.59554 55.245 20.5082 59.2108C22.0139 59.494 22.5577 58.5658 22.5577 57.7632C22.5577 57.0507 22.5408 55.1662 22.5295 52.6648C14.1796 54.4724 12.4208 48.6314 12.4208 48.6314C11.0538 45.1737 9.08119 44.2455 9.08119 44.2455C6.36602 42.391 9.29683 42.4304 9.29683 42.4304C12.3045 42.6348 13.8871 45.515 13.8871 45.515C16.5629 50.1053 20.9076 48.7777 22.627 48.0051C22.8896 46.0719 23.6715 44.7424 24.5228 44.0018C17.8624 43.2498 10.8588 40.6716 10.8588 29.1752C10.8588 25.8919 12.0214 23.218 13.9434 21.1178C13.6115 20.3659 12.5952 17.3095 14.2078 13.1767C14.2078 13.1767 16.7185 12.376 22.4583 16.2538C24.8603 15.5881 27.4105 15.2562 29.9587 15.2393C32.5089 15.2562 35.0572 15.59 37.4592 16.2538C43.1652 12.376 45.6741 13.1767 45.6741 13.1767C47.2848 17.3095 46.2685 20.364 45.976 21.1178C47.8792 23.218 49.0418 25.8938 49.0418 29.1752C49.0418 40.6978 42.0289 43.2386 35.361 43.9718C36.4035 44.8699 37.3805 46.7169 37.3805 49.5202C37.3805 53.533 37.343 56.7657 37.343 57.7426C37.343 58.5227 37.868 59.4602 39.4131 59.1583C51.4138 55.2337 60 43.983 60 30.7391C60 14.1761 46.5723 0.737183 29.9981 0.737183L30.0019 0.739058Z" fill="#03A6A6"/>
</svg>
