<svg width="60" height="60" viewBox="0 0 60 60" fill="none" xmlns="http://www.w3.org/2000/svg">
<path d="M13.4319 60.0011H0.992178V19.9411H13.4319V60.0011ZM7.20454 14.4766C3.22726 14.4766 0 11.1808 0 7.20347C0 3.22619 3.22512 -0.00106812 7.20454 -0.00106812C11.184 -0.00106812 14.4091 3.22405 14.4091 7.20347C14.4091 11.1808 11.1818 14.4766 7.20454 14.4766ZM59.9893 60.0011H47.5774V40.5004C47.5774 35.8524 47.4831 29.8929 41.11 29.8929C34.6427 29.8929 33.6505 34.9416 33.6505 40.1661V60.0011H21.2236V19.9411H33.1533V25.4056H33.3269C34.9877 22.2576 39.0443 18.936 45.0959 18.936C57.6856 18.936 60 27.227 60 37.9953V60.0011H59.9893Z" fill="#03A6A6"/>
</svg>
