<svg width="40" height="40" viewBox="0 0 40 40" fill="none" xmlns="http://www.w3.org/2000/svg">
<path d="M38.6332 31.9763L31.8763 25.2193L26.6789 23.072C28.4095 20.6111 29.3366 17.6751 29.3333 14.6666C29.3333 6.5794 22.7539 0 14.6666 0C6.5794 0 0 6.5794 0 14.6666C0 22.7539 6.5794 29.3333 14.6666 29.3333C17.7013 29.3367 20.6615 28.3936 23.1349 26.6352L25.2765 31.8185L32.0333 38.5758C32.4666 39.0092 32.981 39.353 33.5472 39.5875C34.1134 39.822 34.7203 39.9428 35.3331 39.9428C35.9459 39.9428 36.5528 39.8221 37.119 39.5876C37.6852 39.3531 38.1997 39.0094 38.633 38.576C39.0664 38.1427 39.4102 37.6283 39.6447 37.0621C39.8792 36.4959 40 35.889 40 35.2762C40 34.6633 39.8793 34.0565 39.6448 33.4903C39.4103 32.9241 39.0666 32.4096 38.6332 31.9763ZM2.66666 14.6666C2.66666 8.04998 8.04998 2.66666 14.6666 2.66666C21.2833 2.66666 26.6666 8.04998 26.6666 14.6666C26.6666 21.2833 21.2833 26.6666 14.6666 26.6666C8.04998 26.6666 2.66666 21.2833 2.66666 14.6666ZM36.7475 36.6903C36.3721 37.0648 35.8635 37.2751 35.3333 37.2751C34.803 37.2751 34.2944 37.0648 33.919 36.6903L27.538 30.3093L25.5469 25.4897L30.3666 27.4809L36.7477 33.8618C37.1221 34.2372 37.3324 34.7458 37.3324 35.2761C37.3324 35.8063 37.122 36.3149 36.7475 36.6903Z" fill="#03A6A6"/>
</svg>
