<svg width="60" height="50" viewBox="0 0 60 50" fill="none" xmlns="http://www.w3.org/2000/svg">
<path d="M59.8856 6.42626C57.6788 7.39376 55.3163 8.05938 52.8263 8.36126C55.3669 6.83688 57.3094 4.42563 58.2356 1.55313C55.8525 2.94063 53.2163 3.94563 50.4131 4.51376C48.1781 2.12126 44.9831 0.615631 41.4375 0.615631C34.6406 0.615631 29.1319 6.12251 29.1319 12.91C29.1319 13.8869 29.25 14.8244 29.4544 15.7131C19.23 15.235 10.1663 10.3225 4.10438 2.90126C3.03938 4.70876 2.43375 6.80876 2.43375 9.09438C2.43375 13.3713 4.61062 17.1213 7.90125 19.3263C5.88937 19.2681 3.99562 18.7113 2.33625 17.7944V17.9425C2.33625 23.9069 6.57375 28.8794 12.1988 30.0119C11.1731 30.2838 10.0781 30.4413 8.96625 30.4413C8.17688 30.4413 7.42313 30.3644 6.67125 30.2256C8.25375 35.1081 12.7837 38.6631 18.1838 38.77C13.9856 42.0606 8.66438 44.0219 2.93062 44.0219C1.95375 44.0219 0.97875 43.975 0 43.8569C5.46938 47.3444 11.925 49.3844 18.8981 49.3844C41.5238 49.3844 53.8875 30.6438 53.8875 14.4138C53.8875 13.8963 53.8875 13.3694 53.8481 12.8406C56.2612 11.1213 58.35 8.94251 60 6.47313L59.8856 6.42626Z" fill="#03A6A6"/>
</svg>
