<svg width="35" height="39" viewBox="0 0 35 39" fill="none" xmlns="http://www.w3.org/2000/svg">
<path d="M33.9216 29.7862L18.1917 38.6438V31.7429L27.9929 26.3739L33.9216 29.7862ZM35 28.8154V10.2846L29.2416 13.5961V25.5038L35 28.8154ZM1.07843 29.7862L16.8083 38.6438V31.7429L7.00708 26.3739L1.07843 29.7862ZM0 28.8154V10.2846L5.75844 13.5961V25.5038L0 28.8154ZM0.67402 9.08497L16.8083 0V6.67347L6.39706 12.3761L0.67402 9.08497ZM34.326 9.08497L18.1917 0V6.67347L28.6029 12.3761L34.326 9.08497ZM16.8083 30.177L7.14188 24.8788V14.39L16.8083 19.9496V30.177ZM18.1917 30.177L27.8581 24.8788V14.39L18.1917 19.9496V30.177ZM7.79412 13.1781L17.5027 7.86628L27.2113 13.1781L17.5027 18.7595L7.79412 13.1781Z" fill="#011F26"/>
</svg>
