<svg width="35" height="35" viewBox="0 0 35 35" fill="none" xmlns="http://www.w3.org/2000/svg">
<path d="M17.5011 0.0010938C7.83283 0.0010938 0 7.84049 0 17.5022C0 25.2388 5.01406 31.7962 11.9631 34.1096C12.8414 34.2748 13.1586 33.7334 13.1586 33.2652C13.1586 32.8496 13.1488 31.7503 13.1422 30.2911C8.27145 31.3456 7.24545 27.9383 7.24545 27.9383C6.44806 25.9213 5.29736 25.3799 5.29736 25.3799C3.71351 24.2981 5.42315 24.3211 5.42315 24.3211C7.17764 24.4403 8.10082 26.1204 8.10082 26.1204C9.6617 28.798 12.1961 28.0236 13.1991 27.573C13.3522 26.4452 13.8084 25.6697 14.305 25.2377C10.4197 24.7991 6.3343 23.295 6.3343 16.5889C6.3343 14.6736 7.01247 13.1138 8.13363 11.8887C7.94003 11.4501 7.34718 9.66717 8.28786 7.25639C8.28786 7.25639 9.75249 6.78933 13.1007 9.05135C14.5018 8.66304 15.9894 8.46944 17.4759 8.45959C18.9635 8.46944 20.45 8.66413 21.8512 9.05135C25.1797 6.78933 26.6432 7.25639 26.6432 7.25639C27.5828 9.66717 26.99 11.449 26.8193 11.8887C27.9296 13.1138 28.6077 14.6747 28.6077 16.5889C28.6077 23.3104 24.5168 24.7925 20.6272 25.2202C21.2354 25.7441 21.8053 26.8215 21.8053 28.4568C21.8053 30.7976 21.7834 32.6833 21.7834 33.2532C21.7834 33.7082 22.0897 34.2551 22.991 34.079C29.9914 31.7896 35 25.2267 35 17.5011C35 7.8394 27.1672 0 17.4989 0L17.5011 0.0010938Z" fill="#011F26"/>
</svg>
